<svg width="484" height="383" viewBox="0 0 484 383" fill="none" xmlns="http://www.w3.org/2000/svg">
<circle cx="399.598" cy="262.964" r="3" transform="rotate(30 399.598 262.964)" fill="#81ADC8"/>
<circle cx="406.526" cy="266.964" r="4" transform="rotate(30 406.526 266.964)" fill="#81ADC8"/>
<path d="M394.732 269.392L396.19 269.368C397.087 269.353 397.919 269.833 398.355 270.618V270.618C398.79 271.402 399.623 271.883 400.52 271.868V271.868C401.417 271.853 402.249 272.333 402.685 273.118L403.392 274.392" stroke="black" stroke-width="2.5" stroke-linecap="round" stroke-linejoin="round"/>
<path d="M123.928 82.649C136.884 83.0157 147.766 86.1324 157.094 93.4658C170.913 104.099 177.823 118.583 176.959 136.916C176.614 143.883 173.85 149.933 169.532 155.066C162.104 164.05 152.43 168.45 141.202 169.916C140.166 170.1 139.302 170.1 138.266 169.916C127.038 167.9 115.982 165.7 105.964 159.649C93.0082 151.399 86.2714 139.116 86.4442 122.983C86.7896 104.466 100.436 87.0491 117.019 83.3824C119.783 82.8324 122.547 82.8324 123.928 82.649ZM125.138 102.632C122.719 103.182 120.128 103.366 117.883 104.283C107.346 108.866 102.509 123.716 108.209 134.166C110.109 137.833 113.046 140.583 116.501 142.416C123.065 145.899 130.147 148.099 137.402 148.833C140.857 149.199 144.657 148.466 147.939 146.999C155.885 143.699 159.167 137.283 157.44 128.849C155.885 121.149 152.258 114.549 146.039 109.966C139.993 105.566 132.911 103.366 125.138 102.632Z" fill="#CD4631"/>
<path d="M141.556 38.6488C148.638 39.3821 155.893 39.5655 162.975 40.6655C179.386 43.4155 192.686 52.3989 202.705 66.3323C215.833 84.2991 222.916 104.833 223.607 127.749C223.952 136.549 222.225 144.983 218.943 153.049C215.833 160.566 212.033 167.716 207.024 174.133C190.268 195.4 169.885 210.433 143.456 214.283C125.664 216.85 108.044 215.75 91.2887 209.15C79.7152 204.383 69.1781 197.6 59.8502 188.983C56.7409 186.049 54.1498 182.2 51.9042 178.35C45.8584 167.533 42.2308 155.616 38.9489 143.699C37.9125 140.033 38.0852 135.816 38.0852 131.966C38.0852 107.399 46.3766 86.4991 63.6505 69.8157C83.3428 50.9322 106.317 40.1155 133.264 39.1988C136.028 39.1988 138.792 39.1988 141.556 39.1988C141.556 39.0155 141.556 38.8321 141.556 38.6488ZM141.21 59.1823C118.581 58.4489 98.5438 65.9656 80.9244 80.8157C73.6693 87.0491 67.4507 94.1991 63.305 103.366C53.8043 124.449 55.7045 144.799 66.7597 164.6C68.4871 167.716 71.0782 170.283 73.8421 172.483C78.3333 176.15 82.9973 179.45 87.834 182.566C100.789 191 114.608 195.766 130.155 195.033C160.211 193.566 182.149 178.35 197.869 152.133C199.769 149.016 201.151 145.716 202.187 142.233C203.396 138.383 204.26 134.166 204.433 130.316C204.433 110.333 198.214 92.5491 186.468 77.3324C178.867 67.6156 169.021 61.7489 156.929 60.4656C151.747 59.7323 146.392 59.5489 141.21 59.1823Z" fill="#81ADC8"/>
<path d="M115.806 257C101.469 257 89.5501 254.983 78.1494 250.033C70.7215 246.733 63.9847 242.15 58.1116 236.1C50.1656 227.85 41.8742 219.6 33.7555 211.533C33.0646 210.8 32.2009 210.25 31.5099 209.516C28.7461 206.766 25.464 204.2 23.2184 200.9C11.6449 184.216 2.83527 166.066 0.589666 144.983C-1.31046 127.199 1.45336 110.149 7.8447 93.8324C12.8541 80.8156 19.2455 68.7156 27.7097 58.0822C36.3466 47.2654 46.1926 38.4654 57.9389 31.682C71.9307 23.982 86.0954 16.6486 100.951 10.7819C122.198 2.53188 144.308 -0.768144 166.937 0.148529C175.229 0.515197 183.175 2.53188 190.43 6.74858C199.067 11.6986 207.703 16.832 215.649 22.6986C232.404 34.7987 242.596 52.3988 249.16 72.1989C258.488 100.432 259.524 129.399 252.097 158.366C250.542 164.416 248.469 170.466 245.878 175.966C233.786 201.266 216.686 221.616 192.502 234.817C167.628 248.383 141.545 255.717 115.806 257ZM115.461 236.65C139.126 235.183 162.791 228.4 185.075 216.116C203.212 206.033 216.168 190.633 226.186 172.116C229.123 166.616 231.713 160.566 233.268 154.333C240.005 128.299 239.141 102.266 230.159 76.9656C224.805 61.9322 217.031 48.5488 204.076 39.1987C197.166 34.2487 189.739 29.8487 182.311 25.4486C176.61 22.1486 170.392 20.682 164.001 20.4986C144.136 20.1319 124.616 23.0653 105.96 30.582C92.8322 35.8987 80.0495 42.4987 67.6122 49.4655C57.9389 54.9655 49.8201 62.1155 42.7379 70.9156C35.6556 79.7156 30.4735 89.6157 26.155 100.249C19.5909 116.383 17.3453 132.883 20.8001 150.116C22.3548 157.816 24.4276 164.966 30.3007 170.649C33.0646 173.4 35.1374 177.066 37.2103 180.366C39.1104 183.3 40.8378 186.233 42.3924 189.35C44.9835 194.116 48.2655 198.15 52.0657 201.816C58.1116 207.683 64.3302 213.733 70.0306 219.966C76.0765 226.383 83.1588 230.6 91.1048 233.167C98.7053 235.733 106.306 236.65 115.461 236.65Z" fill="#F7EDE8"/>
<path d="M271 245C272.333 246.5 274.2 249.5 271 249.5" stroke="#F7EDE8" stroke-width="2.5" stroke-linecap="round" stroke-linejoin="round"/>
<path d="M280 259C277.736 256.333 274.567 251 280 251" stroke="#F7EDE8" stroke-width="2.5" stroke-linecap="round" stroke-linejoin="round"/>
<path d="M268 253.871C270.254 254.055 274.14 255.044 271.657 257.528" stroke="#F7EDE8" stroke-width="2.5" stroke-linecap="round" stroke-linejoin="round"/>
<path d="M283.504 243.563C285.302 243.483 288.279 242.655 291.765 245.13C295.17 247.548 284.752 244.476 283.843 240.967C282.78 236.866 300.331 243.239 296.904 243.759C294.987 244.05 284.361 238.52 285.913 236.764C287.886 234.53 300.58 239.598 300.483 240.917C300.312 243.243 285.566 235.601 286.592 233.202C287.816 230.342 297.838 234.525 298.526 236.64C299.077 238.333 289.212 232.365 291.013 228" stroke="#81ADC8" stroke-linecap="round"/>
<path d="M449.95 292.501C449.736 292.053 450.31 291.648 450.66 292L454.272 295.636C454.51 295.875 454.917 295.769 455.009 295.445L456.629 289.726C456.759 289.267 457.422 289.312 457.489 289.784L458.161 294.515C458.203 294.808 458.516 294.978 458.785 294.852L463.633 292.573C464.025 292.389 464.42 292.822 464.2 293.195L461.32 298.094C461.173 298.343 461.302 298.663 461.58 298.742L465.394 299.817C465.856 299.947 465.806 300.617 465.33 300.678L460.738 301.264C460.44 301.302 460.267 301.62 460.397 301.891L462.288 305.841C462.501 306.286 461.935 306.691 461.583 306.346L457.328 302.185C457.077 301.94 456.655 302.071 456.587 302.415L455.578 307.555C455.48 308.054 454.755 308.018 454.707 307.512L454.089 301.059C454.055 300.698 453.624 300.531 453.355 300.774L450.211 303.617C449.821 303.97 449.252 303.466 449.555 303.036L451.794 299.863C451.978 299.602 451.832 299.238 451.519 299.176L447.387 298.365C446.897 298.269 446.92 297.559 447.417 297.496L451.453 296.981C451.751 296.943 451.924 296.624 451.795 296.353L449.95 292.501Z" fill="#CD4631"/>
<path d="M406.119 308.718L472.489 301" stroke="black" stroke-width="1.5" stroke-linecap="round"/>
<path d="M393.065 307.109L459.435 299.391" stroke="#CD4631" stroke-width="1.5" stroke-linecap="round"/>
<path d="M466.067 299.77L468.512 300.254C469.058 300.362 469.521 299.844 469.352 299.313L468.306 296.025C468.162 295.572 468.739 295.244 469.054 295.6L470.722 297.481C471.052 297.852 471.647 297.796 471.9 297.369L473.615 294.484C473.837 294.111 474.408 294.251 474.432 294.685L474.631 298.31C474.658 298.793 475.137 299.118 475.596 298.964L477.32 298.385C477.774 298.232 478.11 298.812 477.752 299.13L475.956 300.722C475.585 301.052 475.642 301.647 476.068 301.9L477.802 302.931C478.224 303.182 477.981 303.83 477.499 303.741L474.363 303.168C473.793 303.063 473.333 303.631 473.554 304.167L474.449 306.346C474.641 306.815 474.019 307.183 473.7 306.789L471.636 304.234C471.256 303.764 470.502 303.93 470.355 304.517L470.121 305.452C469.994 305.962 469.241 305.859 469.255 305.334L469.276 304.574C469.29 304.039 468.745 303.67 468.254 303.881L466.712 304.543C466.254 304.74 465.874 304.141 466.247 303.81L467.481 302.715C467.852 302.386 467.796 301.791 467.369 301.537L465.757 300.579C465.333 300.327 465.583 299.674 466.067 299.77Z" fill="black" stroke="black" stroke-width="0.293067"/>
<path d="M181.283 284.715C182.586 283.681 184.186 282.919 185.763 283.007C186.84 283.067 187.367 285.488 187.712 286.263C188.191 287.341 187.537 288.051 186.639 288.684C186.405 289.068 186.186 289.509 186.014 289.896C185.922 290.103 185.785 290.259 185.627 290.388C185.894 291.144 186.515 292.064 186.515 292.526C186.515 293.491 186.367 293.78 185.402 293.166C185.07 292.955 184.606 292.791 184.288 292.514C184.171 292.411 184.073 292.292 184.01 292.15C183.309 290.574 184.991 289.777 186.352 288.879C186.607 288.633 186.806 288.353 186.952 288.055C186.87 287.715 186.536 286.953 186.515 286.764C186.362 285.39 184.473 285.762 183.509 285.762C182.136 285.762 181.608 286.937 180.865 287.892C180.25 288.683 179 289.117 179 287.641C179 286.021 180.001 285.162 181.283 284.715Z" fill="#CD4631"/>
<path d="M179.501 286.514C180.874 284.734 183.346 282.873 185.763 283.007C186.84 283.067 187.367 285.488 187.712 286.263C188.934 289.014 182.776 289.373 184.01 292.15C184.244 292.677 184.947 292.876 185.402 293.166C186.367 293.78 186.515 293.491 186.515 292.526C186.515 291.779 184.894 289.836 185.763 289.325C188.123 287.937 187.615 284.259 184.636 284.259C182.347 284.259 179 284.68 179 287.641C179 289.117 180.25 288.683 180.865 287.892C181.608 286.937 182.136 285.762 183.509 285.762C184.473 285.762 186.362 285.39 186.515 286.764C186.541 286.997 187.044 288.104 186.96 288.212C186.612 288.659 186.263 289.335 186.014 289.896C185.596 290.836 184.26 290.712 184.26 291.899C184.26 292.693 184.303 292.83 184.761 293.402C184.913 293.592 185.798 294.098 185.513 293.528" stroke="#CD4631" stroke-width="1.50298" stroke-linecap="round" stroke-linejoin="round"/>
<path d="M187.266 297.035C187.318 299.118 188.339 297.843 187.573 297.229C187.065 296.824 186.923 297.935 187.517 298.231C188.184 298.565 188.03 296.884 187.823 297.09C187.286 297.628 188.426 299.078 187.266 298.788" stroke="#CD4631" stroke-width="1.50298" stroke-linecap="round" stroke-linejoin="round"/>
<path d="M195.076 277.763C195.187 277.763 195.298 277.761 195.408 277.756C196.689 276.897 198.399 276.389 199.062 274.684C199.241 274.224 199.568 273.295 199.384 272.664C199.318 272.436 199.186 272.247 198.957 272.132C198.23 271.769 196.424 271.324 195.773 271.974C194.557 273.19 193.35 274.198 191.616 274.632C189.993 275.038 189.653 273.182 190.327 272.08C191.452 270.238 192.472 268.96 194.694 269.001C196.389 269.032 199.492 269.098 200.602 270.553C201.914 272.276 201.671 274.642 200.43 276.342C199.838 277.154 198.913 277.677 197.973 278.086C197.822 278.194 197.675 278.286 197.536 278.355C197.165 278.541 196.598 278.669 196.142 278.909C195.363 279.549 195.642 280.605 195.642 281.789C195.642 282.377 195.618 283.128 195.524 283.894C195.492 284.404 195.414 284.886 195.258 285.302C195.081 285.951 194.825 286.539 194.458 286.959C194.159 287.301 193.951 286.995 193.811 286.542C193.257 286.411 193.51 285.08 193.51 284.617C193.51 283.169 193.456 281.737 193.761 280.336C193.803 279.271 194.004 277.763 195.076 277.763Z" fill="#CD4631"/>
<path d="M192.089 272.316C191.742 270.33 193.937 270.11 195.51 269.711C196.758 269.395 197.947 269.132 199.141 269.817C199.918 270.262 201.01 271.404 201.075 272.316C201.317 275.709 198.344 277.763 195.076 277.763C193.707 277.763 193.759 280.223 193.747 281.078C193.728 282.459 193.403 283.795 193.563 285.183C193.607 285.565 193.834 287.672 194.458 286.959C195.491 285.778 195.642 283.267 195.642 281.789C195.642 280.381 195.248 279.153 196.707 278.592C197.998 278.095 199.567 277.525 200.43 276.342C201.671 274.642 201.914 272.276 200.602 270.553C199.492 269.098 196.389 269.032 194.694 269.001C192.472 268.96 191.452 270.238 190.327 272.08C189.653 273.182 189.993 275.038 191.616 274.632C193.35 274.198 194.557 273.19 195.773 271.974C196.424 271.324 198.23 271.769 198.957 272.132C199.822 272.565 199.306 274.057 199.062 274.684C198.087 277.193 194.843 277.109 194.037 279.368C193.427 281.074 193.51 282.833 193.51 284.617C193.51 285.168 193.152 286.947 194.221 286.472C196.259 285.567 195.304 281.715 195.405 279.894C195.463 278.851 196.842 278.702 197.536 278.355C198.376 277.935 199.539 276.705 199.957 275.868C200.524 274.734 200.628 273.004 199.786 271.974C198.736 270.691 196.953 271.477 195.878 270.659C194.945 269.948 192.985 272.368 192.326 273.027C192.067 273.286 191.778 273.513 191.497 273.737C191.37 273.839 190.998 274.579 190.905 274.579C190.613 274.579 191.249 274.094 191.484 273.921C192.278 273.338 193.022 272.672 193.602 271.869C194.248 270.975 195.295 271.369 196.352 271.369C196.959 271.369 198.331 271.106 198.839 271.501C199.608 272.099 199.888 272.637 198.72 273.027" stroke="#CD4631" stroke-width="1.42087" stroke-linecap="round" stroke-linejoin="round"/>
<path d="M195.323 291.855C195.343 291.844 195.363 291.831 195.382 291.818C195.246 291.71 194.787 291.448 194.708 291.261C194.397 290.537 195.371 290.291 195.589 290.972C195.723 291.391 195.611 291.661 195.382 291.818C195.441 291.865 195.44 291.884 195.323 291.855Z" fill="#CD4631"/>
<path d="M194.694 290.788C191.241 291.565 196.231 292.978 195.589 290.972C195.371 290.291 194.397 290.537 194.708 291.261C194.844 291.58 196.09 292.121 194.931 291.735" stroke="#CD4631" stroke-width="1.42087" stroke-linecap="round" stroke-linejoin="round"/>
<path d="M272.393 346.763C270.28 344.818 267.345 346.007 265.75 348.056C264.197 350.05 263.768 354.485 265.802 356.32C266.367 356.83 266.888 357.415 267.525 357.835C267.753 357.984 267.049 358.106 266.79 358.189C265.987 358.446 265.727 359.4 266.077 360.127C266.261 360.509 266.635 360.731 267.047 360.755C267.332 360.772 267.408 360.859 267.098 360.942C266.37 361.137 265.851 361.263 265.445 361.965C264.847 363.002 265.314 363.736 266.298 364.186C267.293 364.64 267.171 364.933 266.419 365.571C265.823 366.078 265.707 366.926 265.597 367.689C265.407 369.01 265.153 370.995 266.432 371.819C268.033 372.852 270.128 372.56 271.81 371.954C272.368 371.753 273.046 371.591 273.428 371.098C273.531 370.964 273.794 370.504 273.436 370.487C272.797 370.456 272.754 371.598 272.785 371.986C273.002 374.738 277.214 375.001 279.117 374.343C280.353 373.915 281.365 373.119 282.234 372.161C282.918 371.407 283.911 370.532 284.286 369.556C284.467 369.085 284.457 369.602 284.669 369.969C285.175 370.848 286.164 370.502 286.893 370.146C287.879 369.665 288.699 368.848 289.18 367.858C289.251 367.713 289.574 366.777 289.671 366.882C290.857 368.158 291.097 366.05 291.831 365.429C291.954 365.325 292.36 366.21 292.464 366.348C293.245 367.392 294.033 368.316 295.428 368.432C298.416 368.68 301.222 366.974 302.869 364.584C303.562 363.578 303.827 362.3 302.611 361.509C302.316 361.318 303.168 361.456 303.317 361.42C304.137 361.224 305.322 360.923 305.82 360.177C306.387 359.326 306.651 358.611 306.21 357.623C305.901 356.933 305.413 356.572 304.683 356.414C304.361 356.345 303.751 356.422 304.147 356.071C304.544 355.719 304.634 354.98 304.593 354.476C304.528 353.682 303.901 353.236 303.16 353.084C302.826 353.016 301.88 353.298 302.039 353.256C302.568 353.114 302.519 350.959 302.413 350.563C301.942 348.804 299.92 347.704 298.12 348.119C297.822 348.187 297.543 348.417 297.72 348.068C297.924 347.668 297.832 347.026 297.87 346.596C298.081 344.173 296.803 342.365 294.742 341.175C293.045 340.196 290.631 339.9 288.969 341.039C288.862 341.113 288.25 342.113 288.475 342.053C288.817 341.961 288.569 341.143 288.491 340.967C288.128 340.141 286.995 339.593 286.192 339.334C285.009 338.954 283.46 339.405 282.365 339.909C281.399 340.353 280.745 341.136 280.368 342.105C280.168 342.619 280.467 342.972 280.073 342.714C279.434 342.297 279.176 341.997 278.319 342.21C277.31 342.461 276.421 342.881 275.713 343.653C275.35 344.048 275.094 344.819 275.238 345.356C275.24 345.364 275.039 344.858 274.924 344.666C274.307 343.636 272.85 343.913 272.2 344.816C271.927 345.197 271.821 345.725 271.86 346.19C271.879 346.432 271.87 347.217 271.695 346.563" stroke="#81ADC8" stroke-width="1.5" stroke-linecap="round" stroke-linejoin="round"/>
<path d="M292.613 375.466C291.765 375.006 291.294 375.143 290.672 375.89C290.091 376.587 290.024 377.748 290.712 378.4C291.779 379.412 293.817 378.802 294.347 377.527C294.604 376.908 294.56 377.37 294.801 377.518C295.402 377.888 295.685 377.884 296.164 377.296C296.74 376.589 296.949 374.012 295.374 374.552C295.199 374.612 294.673 375.087 294.937 374.996C295.288 374.876 295.223 374.434 295.097 374.166C294.763 373.452 293.674 373.223 293.054 373.585C292.59 373.855 292.543 374.473 292.178 374.752C291.826 375.021 290.481 376.505 291.633 376.214" stroke="#81ADC8" stroke-width="1.5" stroke-linecap="round" stroke-linejoin="round"/>
<path d="M299.48 379.744C298.877 379.627 298.166 379.451 298.013 380.27C297.9 380.879 298.523 381.645 299.169 381.543C299.394 381.507 300.136 381.161 300.282 381.308C300.651 381.676 300.873 381.251 301.098 380.893C301.362 380.474 300.963 379.126 300.414 379.004C300.065 378.927 298.688 379.909 298.857 379.993" stroke="#81ADC8" stroke-width="1.5" stroke-linecap="round" stroke-linejoin="round"/>
<path d="M280.418 352.348C278.232 348.563 265.221 359.776 286.245 362.441" stroke="#CD4631" stroke-width="0.75" stroke-linecap="round"/>
<path d="M286.245 362.441C294.449 342.901 278.232 348.563 280.418 352.348L283.02 353.045L282.323 355.648L284.372 356.197L283.823 358.246L284.847 358.52L284.573 359.545L286.245 362.441ZM286.245 362.441C286.245 362.441 286.245 362.441 286.245 362.441Z" stroke="#CD4631" stroke-width="0.75" stroke-linecap="round" stroke-linejoin="round"/>
<path d="M276.352 355.531C276.498 355.187 276.781 354.934 276.959 354.609C277.173 354.22 277.499 353.937 277.782 353.607C277.86 353.516 278.303 353.028 278.136 353.408C277.869 354.02 277.582 354.622 277.322 355.238C277.185 355.564 277.065 355.936 276.836 356.208C276.692 356.379 276.93 355.997 276.954 355.966C277.236 355.606 277.662 355.252 278.023 354.972C278.413 354.67 278.76 354.29 279.039 353.884C279.077 353.829 279.319 353.528 279.168 353.758C278.789 354.336 278.399 354.916 278.072 355.526C277.917 355.815 277.739 356.095 277.55 356.364C277.454 356.502 277.369 356.732 277.223 356.826C277.212 356.833 277.062 357.001 277.112 356.923C277.361 356.537 277.859 356.226 278.193 355.915C278.602 355.535 279.065 355.178 279.41 354.736C279.634 354.448 279.873 354.173 280.125 353.908C280.486 353.528 279.605 354.82 279.34 355.273C279.019 355.823 278.698 356.37 278.383 356.923C278.233 357.187 278.047 357.429 277.9 357.686C277.829 357.809 277.814 357.861 277.937 357.718C278.355 357.234 278.73 356.718 279.152 356.238C279.36 356.001 279.568 355.766 279.813 355.569C279.891 355.506 280.105 355.259 279.958 355.553C279.603 356.263 279.116 356.959 278.674 357.622C278.572 357.775 278.561 357.832 278.684 357.624C278.873 357.307 279.187 356.982 279.469 356.74C279.725 356.521 279.968 356.294 280.189 356.036C280.542 355.624 280.223 356.149 280.108 356.353C279.731 357.031 279.357 357.7 279.069 358.422C279.057 358.451 278.831 359.063 278.875 359.07C278.947 359.082 279.17 358.712 279.206 358.664C279.387 358.42 279.584 358.195 279.789 357.971C280.101 357.629 280.482 357.214 280.678 356.786C280.757 356.614 280.807 356.428 280.888 356.257C280.974 356.074 280.788 356.648 280.716 356.837C280.544 357.287 280.456 357.753 280.34 358.218C280.28 358.455 280.223 358.523 280.329 358.24C280.473 357.856 280.653 357.485 280.821 357.111C280.986 356.742 280.901 357.095 280.842 357.305C280.818 357.389 280.427 358.379 280.466 358.398C280.469 358.4 280.564 358.183 280.571 358.17C280.621 358.073 280.703 357.999 280.751 357.904C280.957 357.492 280.47 359.723 280.56 359.271C280.623 358.958 280.894 358.716 281.044 358.455C281.114 358.331 281.092 358.364 281.092 358.503C281.092 358.787 281.054 359.061 281.044 359.341C281.036 359.533 281.25 359.017 281.371 358.868C281.457 358.763 281.56 358.56 281.683 358.492C281.733 358.465 281.661 359.149 281.651 359.207C281.638 359.279 281.616 359.779 281.656 359.728C281.752 359.606 281.869 359.493 281.963 359.376C282.023 359.301 282.011 359.671 282.011 359.712C282.011 360.132 282.341 359.386 282.349 359.728C282.351 359.773 282.333 360.165 282.398 360.104C282.485 360.023 282.561 359.914 282.64 359.836" stroke="#CD4631" stroke-width="0.5" stroke-linecap="round"/>
<path d="M282.64 351.178C283.103 350.714 283.566 350.257 284.021 349.802C284.181 349.642 284.158 349.795 284.115 349.966C284.062 350.177 284.003 350.354 283.921 350.555C283.747 350.98 283.738 351.484 283.489 351.877C283.131 352.439 284.289 350.81 284.698 350.283C285.048 349.834 284.211 351.323 284.088 351.879C284.087 351.885 284.341 351.517 284.413 351.425C284.687 351.078 284.978 350.731 285.292 350.418C285.32 350.389 285.574 350.121 285.568 350.227C285.546 350.64 285.25 351.065 285.058 351.417C284.862 351.777 284.701 352.155 284.499 352.511C284.419 352.653 284.317 352.825 284.287 352.989C284.259 353.14 284.487 352.755 284.494 352.747C284.831 352.328 285.204 351.94 285.555 351.533C285.944 351.081 285.636 351.65 285.531 351.855C285.351 352.208 285.186 352.566 285.01 352.919C284.861 353.217 284.7 353.519 284.526 353.801C284.407 353.993 284.38 354.302 284.225 354.456C283.933 354.748 284.784 353.84 285.117 353.596C285.474 353.335 285.741 352.87 285.929 352.484C286.066 352.202 286.244 351.977 286.401 351.71C286.431 351.66 286.532 351.532 286.525 351.549C286.391 351.898 286.127 352.186 286.025 352.554C285.857 353.164 285.522 353.776 285.251 354.349C285.059 354.756 285.512 354.168 285.609 354.064C285.83 353.827 286.061 353.611 286.264 353.357C286.359 353.239 286.472 353.118 286.555 352.995C286.804 352.62 286.004 353.707 285.714 354.051C285.52 354.279 285.418 354.588 285.23 354.83C285.147 354.936 285.114 355.072 284.988 355.144C284.944 355.169 285.201 355.031 285.251 354.988C285.485 354.788 285.716 354.583 285.934 354.365C286.128 354.171 286.369 353.809 286.63 353.693C286.808 353.614 286.879 353.518 286.676 353.771C286.468 354.028 286.35 354.297 286.216 354.588C286.105 354.829 285.889 355.028 285.783 355.265C285.758 355.322 285.634 355.568 285.668 355.523C285.933 355.17 286.218 354.855 286.53 354.542C286.775 354.298 286.364 355.193 286.318 355.284C286.213 355.494 286.099 355.709 285.955 355.894C285.779 356.121 285.628 356.396 285.504 356.644C285.447 356.758 285.386 356.843 285.3 356.934C285.052 357.196 285.506 356.797 285.579 356.74C285.912 356.483 286.319 356.274 286.616 355.977C286.866 355.728 286.239 356.574 286.074 356.885C285.931 357.155 285.723 357.355 285.515 357.562C285.337 357.741 285.921 357.374 285.988 357.321C286.008 357.304 286.212 357.116 286.24 357.141C286.35 357.234 286.221 357.546 286.192 357.648C286.165 357.745 286.122 357.866 286.122 357.968C286.122 358.036 286.207 357.862 286.256 357.815C286.441 357.637 286.17 358.386 286.17 358.481C286.17 358.588 286.041 359.003 286.063 358.965C286.081 358.933 286.025 359.274 286.025 359.352" stroke="#CD4631" stroke-width="0.5" stroke-linecap="round"/>
</svg>
